<svg width="16" height="16" viewBox="0 0 16 16" fill="none" xmlns="http://www.w3.org/2000/svg">
<mask id="mask0_3_246" style="mask-type:luminance" maskUnits="userSpaceOnUse" x="0" y="0" width="16" height="16">
<rect x="0.736816" y="0.40741" width="14.7316" height="14.8889" fill="white"/>
</mask>
<g mask="url(#mask0_3_246)">
<path fill-rule="evenodd" clip-rule="evenodd" d="M14.1214 6.63684H13.627V6.6111H8.10264V9.09258H11.5716C11.0655 10.5371 9.70562 11.5741 8.10264 11.5741C6.06876 11.5741 4.41974 9.90743 4.41974 7.85184C4.41974 5.79624 6.06876 4.12961 8.10264 4.12961C9.04147 4.12961 9.89559 4.48757 10.5459 5.07227L12.2821 3.31755C11.1858 2.28494 9.71943 1.64813 8.10264 1.64813C4.71284 1.64813 1.96448 4.42584 1.96448 7.85184C1.96448 11.2778 4.71284 14.0555 8.10264 14.0555C11.4924 14.0555 14.2408 11.2778 14.2408 7.85184C14.2408 7.43588 14.1984 7.02985 14.1214 6.63684Z" fill="#FFC107"/>
<path fill-rule="evenodd" clip-rule="evenodd" d="M2.67212 4.96432L4.68881 6.4591C5.23449 5.09367 6.55604 4.12961 8.10255 4.12961C9.04138 4.12961 9.8955 4.48757 10.5458 5.07227L12.282 3.31755C11.1857 2.28494 9.71934 1.64813 8.10255 1.64813C5.74488 1.64813 3.70026 2.99341 2.67212 4.96432Z" fill="#FF3D00"/>
<path fill-rule="evenodd" clip-rule="evenodd" d="M8.10256 14.0556C9.68804 14.0556 11.1287 13.4424 12.2179 12.4451L10.3181 10.8204C9.70185 11.2921 8.93581 11.5741 8.10256 11.5741C6.50602 11.5741 5.15041 10.5452 4.63971 9.10938L2.63806 10.6681C3.65393 12.6771 5.71696 14.0556 8.10256 14.0556Z" fill="#4CAF50"/>
<path fill-rule="evenodd" clip-rule="evenodd" d="M14.1214 6.63683H13.627V6.61108H8.10266V9.09257H11.5716C11.3286 9.78645 10.8869 10.3848 10.3173 10.8206C10.3176 10.8203 10.3179 10.8203 10.3182 10.82L12.218 12.4447C12.0836 12.5682 14.2408 10.9537 14.2408 7.85182C14.2408 7.43587 14.1985 7.02983 14.1214 6.63683Z" fill="#1976D2"/>
</g>
</svg>
